<svg width="540" height="160" viewBox="0 0 540 160" fill="none" xmlns="http://www.w3.org/2000/svg">
  <rect width="540" height="160" rx="28" fill="white"/>
  <path d="M48 34C59 34 67.8 42.7 67.8 53.5V115H56.4V89.4H38.6L24.5 115H11L26.6 86.6C18.3 82.7 13 74.6 13 65.3C13 48.1 27.1 34 44.4 34H48ZM56.4 78.6V53.5C56.4 49 52.7 45.4 48 45.4H44.4C33.5 45.4 24.4 54.4 24.4 65.3C24.4 72.7 30.4 78.6 37.7 78.6H56.4Z" fill="#F26430"/>
  <path d="M84 39H132C155.7 39 174.6 57.9 174.6 81.5C174.6 105.1 155.7 124 132 124H84V39ZM126.7 101.2C137.5 101.2 146.2 92.4 146.2 81.5C146.2 70.7 137.5 61.8 126.7 61.8H111.4V101.2H126.7Z" fill="#008F97"/>
  <path d="M190 39H247.7C268.2 39 284.7 55.5 284.7 76C284.7 89.4 277.5 101.3 266.6 107.8L287 124H248.8L233.5 111.3H217.4V124H190V39ZM239.1 88.5C246.1 88.5 251.8 82.9 251.8 76C251.8 69.1 246.1 63.5 239.1 63.5H217.4V88.5H239.1Z" fill="#008F97"/>
  <path d="M300 39H386V62.8H327.4V72.3H380.9V94.1H327.4V100.2H386V124H300V39Z" fill="#008F97"/>
  <path d="M402 39H429.4V124H402V39Z" fill="#008F97"/>
  <path d="M444 39H530V62.8H471.4V72.3H524.9V94.1H471.4V100.2H530V124H444V39Z" fill="#008F97"/>
  <text x="270" y="150" text-anchor="middle" fill="#1C1C1C" font-family="Arial, Helvetica, sans-serif" font-size="26" letter-spacing="8">HEAL AT HOME</text>
</svg>
